<?xml version="1.0" encoding="UTF-8"?>
<svg xmlns="http://www.w3.org/2000/svg" xmlns:xlink="http://www.w3.org/1999/xlink" width="75px" height="px" viewBox="0 0 75 75" version="1.1">
<g id="surface1">
<path style=" stroke:none;fill-rule:nonzero;fill:rgb(7.450981%,66.666669%,32.156864%);fill-opacity:1;" d="M 75 37.5 C 75 16.789062 58.210938 0 37.5 0 C 16.789062 0 0 16.789062 0 37.5 C 0 58.210938 16.789062 75 37.5 75 C 58.210938 75 75 58.210938 75 37.5 Z M 75 37.5 "/>
<path style=" stroke:none;fill-rule:nonzero;fill:rgb(100%,100%,100%);fill-opacity:1;" d="M 47.523438 32.917969 C 45.15625 22.464844 39.558594 19.027344 38.953125 17.714844 C 38.296875 16.789062 37.628906 15.140625 37.628906 15.140625 C 37.617188 15.109375 37.597656 15.0625 37.578125 15.015625 C 37.511719 15.941406 37.476562 16.296875 36.597656 17.234375 C 35.242188 18.292969 28.28125 24.132812 27.71875 36.011719 C 27.1875 47.085938 35.71875 53.6875 36.871094 54.53125 L 37.003906 54.621094 L 37.003906 54.613281 C 37.011719 54.671875 37.371094 57.25 37.621094 59.984375 L 38.523438 59.984375 C 38.738281 58.054688 39.054688 56.132812 39.476562 54.234375 L 39.550781 54.1875 C 40.066406 53.816406 40.558594 53.414062 41.023438 52.980469 L 41.078125 52.933594 C 43.527344 50.667969 47.9375 45.429688 47.894531 37.074219 C 47.882812 35.683594 47.761719 34.292969 47.523438 32.917969 Z M 37.527344 48.273438 C 37.527344 48.273438 37.527344 32.738281 38.039062 32.742188 C 38.4375 32.742188 38.957031 52.78125 38.957031 52.78125 C 38.242188 52.695312 37.527344 49.484375 37.527344 48.273438 Z M 37.527344 48.273438 "/>
</g>
</svg>
