
<svg version="1.0" xmlns="http://www.w3.org/2000/svg"
 width="150.000000pt" height="76.000000pt" viewBox="0 0 150.000000 76.000000"
 preserveAspectRatio="xMidYMid meet">

<g transform="translate(0.000000,76.000000) scale(0.100000,-0.100000)"
fill="#fff" stroke="none">
<path d="M702 633 c-45 -22 -82 -69 -81 -101 1 -21 2 -23 6 -7 13 52 75 105
123 105 38 0 16 -79 -48 -172 -33 -49 -92 -162 -92 -178 0 -34 24 1 104 155
40 76 90 130 146 158 57 29 90 26 90 -7 0 -37 -66 -84 -162 -115 -21 -7 -38
-16 -38 -19 0 -4 38 -22 83 -40 117 -47 122 -47 35 -5 -42 21 -77 40 -78 43 0
3 23 13 50 23 48 17 130 83 130 104 0 6 -8 21 -18 33 -25 31 -74 21 -135 -25
l-46 -35 6 35 c6 35 -9 65 -31 65 -6 0 -26 -8 -44 -17z"/>
<path d="M1263 605 c-20 -24 -36 -35 -55 -35 -15 0 -30 -5 -33 -10 -4 -7 3 -8
21 -4 l27 7 -19 -33 c-26 -44 -73 -78 -84 -59 -7 10 -14 10 -35 1 -24 -11 -25
-11 -15 8 6 11 7 20 1 20 -5 0 -11 -7 -14 -15 -7 -16 -78 -55 -102 -55 -24 0
-12 24 15 30 26 6 40 30 18 30 -24 0 -58 -30 -58 -52 0 -17 5 -19 33 -16 17 3
40 8 50 13 13 5 16 4 11 -9 -9 -24 4 -19 45 16 30 26 37 29 39 15 4 -19 11
-21 31 -8 10 7 18 5 25 -5 9 -12 20 -11 74 6 35 11 84 20 108 20 28 0 43 4 39
10 -10 16 -71 11 -135 -11 -33 -11 -65 -19 -70 -17 -6 2 5 26 24 54 24 35 45
54 68 61 28 10 30 11 9 12 l-25 1 29 30 c16 17 24 30 17 30 -6 0 -24 -16 -39
-35z"/>
<path d="M208 573 c-69 -63 -119 -143 -89 -143 5 0 11 10 15 23 11 46 107 147
139 147 14 0 7 -42 -19 -106 -14 -36 -24 -68 -21 -70 2 -3 16 15 31 40 38 64
111 126 150 126 18 0 37 -4 44 -10 8 -6 8 -5 0 4 -28 32 -80 23 -129 -21 l-41
-37 2 29 c1 17 2 36 1 43 -2 24 -41 12 -83 -25z"/>
<path d="M474 547 c17 -56 -83 -170 -198 -227 -77 -38 -146 -51 -146 -27 0 31
95 88 195 119 58 18 58 18 15 13 -25 -3 -77 -21 -117 -40 -80 -40 -120 -79
-102 -101 38 -46 210 27 302 126 58 62 76 107 57 137 -11 17 -11 17 -6 0z"/>
<path d="M494 427 c-29 -25 -28 -57 1 -57 16 0 95 37 95 44 0 2 -22 -4 -50
-15 -57 -22 -80 -8 -25 15 20 9 34 20 30 26 -9 15 -21 12 -51 -13z"/>
<path d="M371 309 c-113 -76 -166 -176 -105 -200 33 -12 117 10 190 51 46 25
51 27 61 12 10 -16 13 -15 39 4 44 31 64 36 64 17 0 -14 4 -13 23 5 30 28 37
28 30 0 -6 -23 -6 -23 21 2 22 19 29 22 36 11 4 -8 15 -11 24 -8 15 6 15 4 1
-23 -24 -46 -17 -58 10 -18 14 21 32 36 43 35 9 0 32 10 50 23 27 20 35 22 41
11 6 -9 18 -11 35 -7 14 3 26 2 26 -3 0 -19 69 -5 95 19 25 23 27 24 37 7 9
-17 11 -17 27 -2 16 14 20 14 31 0 9 -11 17 -12 31 -4 25 13 24 -3 -1 -26 -30
-27 -62 -83 -55 -95 12 -20 25 -9 56 45 37 66 50 74 154 96 72 15 76 17 35 18
-25 0 -69 -8 -98 -18 l-54 -18 6 23 c8 29 -5 31 -29 4 -22 -24 -55 -29 -35 -5
16 19 -2 20 -30 3 -15 -10 -22 -10 -31 -1 -8 8 -18 9 -30 2 -15 -8 -17 -6 -12
8 4 10 -9 1 -29 -20 -48 -51 -75 -52 -42 -2 16 25 16 25 -19 25 -19 0 -40 -7
-47 -15 -8 -10 -27 -15 -51 -13 -20 1 -44 -4 -53 -11 -14 -12 -16 -10 -16 9 0
20 -2 19 -27 -10 -21 -26 -28 -29 -35 -17 -5 10 -20 14 -43 13 -21 -2 -35 1
-35 8 0 6 -6 4 -13 -5 -14 -19 -57 -35 -57 -21 0 20 -40 20 -62 0 -42 -38
-168 -91 -224 -96 -52 -4 -54 -4 -54 20 0 62 156 198 226 198 16 0 16 -7 -1
-55 -7 -20 -6 -20 9 -1 9 11 16 30 16 43 0 39 -56 31 -129 -18z m580 -59 c-13
-11 -28 -20 -35 -20 -6 1 0 10 13 20 13 11 28 20 35 20 6 -1 0 -10 -13 -20z
m-101 -15 c0 -2 -10 -10 -22 -16 -21 -11 -22 -11 -9 4 13 16 31 23 31 12z
m-307 -52 c-22 -17 -27 -10 -13 17 10 18 14 20 21 9 6 -9 3 -18 -8 -26z"/>
</g>
</svg>
