<svg width="100" height="100" viewBox="0 0 100 100" fill="none" xmlns="http://www.w3.org/2000/svg">
<g clip-path="url(#clip0_2180_176)">
<path d="M38.5334 1.86671C18.6667 7.46671 5.46669 21.7334 1.20003 42.2667C-2.79997 61.7334 8.80003 84.2667 27.6 93.7334C38.1334 99.0667 48.1334 100.8 57.7334 98.8C70 96.2667 84.9334 88 77.3334 88C75.7334 88 73.2 87.3334 71.6 86.5334C68.1334 84.6667 61.3334 78.5334 61.3334 77.2C61.3334 76.6667 63.3334 74.9334 65.8667 73.3334L70.4 70.5334L73.8667 74C77.4667 77.6 81.2 78.2667 85.4667 76C90.6667 73.2 88.5334 69.6 78.6667 64.6667C69.0667 59.8667 65.7334 56.4 65.2 50.6667C64.5334 43.6 65.4667 40.1334 68.6667 36.2667C72.5334 31.6 78.4 30.1334 85.3334 32C90.1334 33.3334 97.3334 38 97.3334 39.7334C97.3334 40.2667 95.0667 42.1334 92.4 43.8667C88.1334 46.6667 87.4667 46.6667 86.4 44.8C84.9334 42.1334 79.6 42 77.4667 44.5334C74.8 47.6 77.8667 51.4667 84.9334 54.1334C88.5334 55.4667 92.9334 57.6 94.9334 58.9334L98.5334 61.3334L99.4667 55.2C101.2 43.4667 95.3334 26.5334 86 16.2667C78.1334 7.46671 60.8 -0.13329 49.3334 0.133377C46.8 0.133377 41.8667 1.06671 38.5334 1.86671ZM58.4 38.2667L58.8 44H51.4667H44V65.4667V86.8L37.7334 86.4L31.3334 86V64.9334V44H23.7334H16V38.9334C16 36.1334 16.4 33.3334 16.9334 32.8C17.4667 32.4 26.9334 32.1334 37.8667 32.2667L58 32.6667L58.4 38.2667Z" fill="#0078CF"/>
</g>
<defs>
<clipPath id="clip0_2180_176">
<rect width="100" height="100" fill="white"/>
</clipPath>
</defs>
</svg>
