<svg xmlns="http://www.w3.org/2000/svg" version="1.1" xmlns:xlink="http://www.w3.org/1999/xlink" xmlns:svgjs="http://svgjs.dev/svgjs" width="100" height="100"><svg width="100" height="100" viewBox="0 0 100 100" fill="none" xmlns="http://www.w3.org/2000/svg">
<g clip-path="url(#clip0_2201_271)">
<path d="M0 50.375C0 22.7608 22.0108 0 49.625 0C77.2392 0 100 22.0108 100 49.625C100 77.2392 77.9892 100 50.375 100C22.7608 100 0 77.9892 0 50.375Z" fill="#001935"></path>
<path d="M2.5 50.3563C2.5 24.1227 23.4102 2.5 49.6437 2.5C75.8773 2.5 97.5 23.4102 97.5 49.6437C97.5 75.8773 76.5898 97.5 50.3563 97.5C24.1227 97.5 2.5 76.5898 2.5 50.3563Z" fill="#1B3942"></path>
<path d="M5 50.3375C5 25.4847 24.8097 5 49.6625 5C74.5153 5 95 24.8097 95 49.6625C95 74.5153 75.1903 95 50.3375 95C25.4847 95 5 75.1903 5 50.3375Z" fill="#001935"></path>
<path d="M90 50.0299C90 44.7302 83.3632 39.7078 73.1879 36.5933C75.5361 26.2223 74.4925 17.9712 69.894 15.3295C68.8341 14.7098 67.5948 14.4163 66.2413 14.4163V18.0527C66.9914 18.0527 67.5948 18.1995 68.1003 18.4767C70.318 19.7486 71.2801 24.5916 70.53 30.8207C70.3506 32.3535 70.0571 33.9679 69.6983 35.6149C66.5022 34.8321 63.0126 34.2288 59.3437 33.8374C57.1423 30.8207 54.8594 28.0812 52.5601 25.6842C57.8761 20.7433 62.8659 18.0364 66.2576 18.0364V14.4C61.7733 14.4 55.903 17.5961 49.9674 23.1403C44.0318 17.6287 38.1614 14.4653 33.6771 14.4653V18.1016C37.0526 18.1016 42.0587 20.7922 47.3746 25.7005C45.0917 28.0975 42.8088 30.8207 40.64 33.8374C36.9548 34.2288 33.4651 34.8321 30.2691 35.6312C29.894 34.0005 29.6168 32.4188 29.4211 30.9023C28.6547 24.6732 29.6005 19.8301 31.8019 18.5419C32.2911 18.2484 32.927 18.1179 33.6771 18.1179V14.4816C32.3074 14.4816 31.0681 14.7751 29.9918 15.3947C25.4097 18.0364 24.3824 26.2712 26.7468 36.6096C16.6042 39.7404 10 44.7465 10 50.0299C10 55.3295 16.6368 60.3519 26.8121 63.4665C24.4639 73.8374 25.5075 82.0886 30.106 84.7302C31.1659 85.3499 32.4052 85.6434 33.775 85.6434C38.2593 85.6434 44.1296 82.4473 50.0652 76.9031C56.0008 82.4147 61.8712 85.5782 66.3555 85.5782C67.7252 85.5782 68.9645 85.2847 70.0408 84.665C74.6229 82.0233 75.6502 73.7885 73.2858 63.4502C83.3958 60.3356 90 55.3132 90 50.0299ZM68.7689 39.1534C68.1655 41.2569 67.4154 43.4257 66.5675 45.5945C65.8989 44.29 65.1977 42.9854 64.4313 41.6809C63.6812 40.3764 62.8822 39.1045 62.0832 37.8652C64.3987 38.2076 66.6327 38.6316 68.7689 39.1534ZM61.3004 56.5199C60.0285 58.7213 58.724 60.8085 57.3706 62.749C54.9409 62.961 52.4786 63.0751 50 63.0751C47.5377 63.0751 45.0754 62.961 42.662 62.7653C41.3086 60.8248 39.9878 58.7539 38.7159 56.5688C37.4766 54.4326 36.3514 52.2639 35.3241 50.0788C36.3351 47.8937 37.4766 45.7086 38.6996 43.5725C39.9715 41.3711 41.276 39.2838 42.6294 37.3434C45.0591 37.1314 47.5214 37.0172 50 37.0172C52.4623 37.0172 54.9246 37.1314 57.338 37.3271C58.6914 39.2675 60.0122 41.3385 61.2841 43.5235C62.5234 45.6597 63.6486 47.8285 64.6759 50.0136C63.6486 52.1986 62.5234 54.3837 61.3004 56.5199ZM66.5675 54.4C67.448 56.5851 68.1981 58.7702 68.8178 60.89C66.6816 61.4118 64.4313 61.8521 62.0995 62.1946C62.8985 60.939 63.6975 59.6507 64.4476 58.3299C65.1977 57.0254 65.8989 55.7045 66.5675 54.4ZM50.0326 71.7991C48.5161 70.2337 46.9996 68.4889 45.4994 66.581C46.967 66.6463 48.4672 66.6952 49.9837 66.6952C51.5165 66.6952 53.033 66.6626 54.5169 66.581C53.0493 68.4889 51.5328 70.2337 50.0326 71.7991ZM37.9005 62.1946C35.585 61.8521 33.351 61.4282 31.2148 60.9063C31.8182 58.8028 32.5683 56.634 33.4162 54.4653C34.0848 55.7698 34.786 57.0743 35.5524 58.3788C36.3188 59.6833 37.1015 60.9553 37.9005 62.1946ZM49.9511 28.2606C51.4676 29.826 52.9841 31.5708 54.4843 33.4787C53.0167 33.4135 51.5165 33.3646 50 33.3646C48.4672 33.3646 46.9507 33.3972 45.4668 33.4787C46.9344 31.5708 48.4509 29.826 49.9511 28.2606ZM37.8842 37.8652C37.0852 39.1208 36.2862 40.409 35.5361 41.7298C34.786 43.0343 34.0848 44.3389 33.4162 45.6434C32.5357 43.4583 31.7856 41.2732 31.1659 39.1534C33.3021 38.6479 35.5524 38.2076 37.8842 37.8652ZM23.1268 58.281C17.3543 55.8187 13.6201 52.59 13.6201 50.0299C13.6201 47.4697 17.3543 44.2247 23.1268 41.7787C24.5292 41.1754 26.062 40.6373 27.6437 40.1318C28.5732 43.3279 29.7962 46.6544 31.3127 50.0625C29.8125 53.4542 28.6058 56.7645 27.6926 59.9443C26.0783 59.4387 24.5455 58.8843 23.1268 58.281ZM31.8997 81.5831C29.682 80.3111 28.7199 75.4681 29.47 69.239C29.6494 67.7062 29.9429 66.0918 30.3017 64.4449C33.4978 65.2276 36.9874 65.8309 40.6563 66.2223C42.8577 69.239 45.1406 71.9785 47.4399 74.3756C42.1239 79.3165 37.1341 82.0233 33.7424 82.0233C33.0086 82.007 32.3889 81.8603 31.8997 81.5831ZM70.5789 69.1575C71.3453 75.3866 70.3995 80.2296 68.1981 81.5178C67.7089 81.8114 67.073 81.9418 66.3229 81.9418C62.9474 81.9418 57.9413 79.2512 52.6254 74.3429C54.9083 71.9459 57.1912 69.2227 59.36 66.206C63.0453 65.8146 66.5349 65.2113 69.7309 64.4123C70.106 66.0592 70.3995 67.6409 70.5789 69.1575ZM76.8569 58.281C75.4546 58.8843 73.9217 59.4224 72.34 59.9279C71.4105 56.7319 70.1875 53.4053 68.671 49.9972C70.1712 46.6055 71.3779 43.2953 72.2911 40.1155C73.9054 40.621 75.4382 41.1754 76.8732 41.7787C82.6457 44.241 86.3799 47.4697 86.3799 50.0299C86.3636 52.59 82.6294 55.835 76.8569 58.281Z" fill="#1B3942"></path>
<path d="M32.1429 19.7C33.8124 20.529 35.3867 21.486 36.9281 22.532C37.0056 22.5844 37.083 22.6368 37.1628 22.6908C38.1419 23.357 39.069 24.0743 39.9793 24.8313C40.2179 25.0292 40.4592 25.2239 40.7001 25.419C41.3401 25.9432 41.9662 26.4834 42.5922 27.0242C42.6725 27.0933 42.7528 27.1625 42.8355 27.2337C43.1919 27.5422 43.5324 27.8584 43.8617 28.1961C43.9205 28.2516 43.9793 28.3071 44.0398 28.3643C44.1019 28.4236 44.164 28.4829 44.2279 28.544C44.2858 28.5985 44.3437 28.653 44.4034 28.7092C44.5595 28.8967 44.6033 29.032 44.6429 29.2703C44.7221 29.2455 44.8013 29.2207 44.8829 29.1952C46.5829 28.6668 48.1473 28.3524 49.9286 28.3609C50.0413 28.3611 50.0413 28.3611 50.1563 28.3613C51.64 28.3665 53.0556 28.4486 54.4532 28.9999C54.7456 29.0883 54.9835 29.0984 55.2875 29.075C55.6583 28.8366 55.8974 28.5407 56.1664 28.1961C56.6064 27.7239 56.6281 27.7195 56.8281 27.5195C56.9281 27.4195 57.0454 27.3195 57.1429 27.2195C57.3226 27.0353 57.3226 27.0353 57.5275 26.8594C57.6285 26.7713 57.6285 26.7713 57.7316 26.6813C57.9281 26.5097 57.9781 26.4695 58.0781 26.3695C58.1281 26.3195 58.1281 26.3195 58.2172 26.243C58.3704 26.1025 58.5305 25.9695 58.6932 25.8401C58.7914 25.7616 58.8896 25.683 58.9908 25.6021C59.09 25.5236 59.1892 25.445 59.2914 25.3641C59.4582 25.2298 59.6251 25.0955 59.7919 24.9612C60.588 24.3269 61.3934 23.7109 62.2211 23.118C62.2948 23.0651 62.3686 23.0122 62.4446 22.9578C63.2029 22.421 63.9778 21.9084 64.7529 21.3963C64.9243 21.2831 65.0953 21.1695 65.2663 21.0558C65.8883 20.6496 66.5327 20.3149 67.2015 19.993C67.3577 19.9122 67.3907 19.9325 67.55 19.85C67.9329 19.7203 67.7 19.8 67.9 19.75C69.1679 22.305 69.7734 25.1572 69.8 28V28.5C69.5855 32.4399 69.0914 36.1164 66.85 39.1C66.2886 38.4621 66.3859 37.7278 66.3898 36.9241C66.39 36.7569 66.39 36.7569 66.3902 36.5863C66.399 35.7731 66.4698 34.9783 66.5668 34.1714C66.8752 31.5366 67.023 28.5075 66.1856 25.9615C66.1273 25.7547 66.1273 25.7547 66.1273 25.4617C66.0629 25.4617 65.9664 25.4 65.9 25.4C65.85 25.5 65.8401 25.5717 65.8 25.7C65.5942 26.2893 65.2783 26.8423 65 27.4C64.9676 27.465 64.9334 27.4831 64.9 27.55C63.9089 29.527 62.853 31.2418 61.45 32.95C61.3783 33.0374 61.239 33.2697 61.1652 33.3597C61.0736 33.4681 61.0736 33.4681 60.9802 33.5786C60.8262 33.7656 60.6723 33.6601 60.7 33.95C60.8979 34.121 61.2465 34.3795 61.4581 34.5316C61.8767 34.8368 62.2505 35.1459 62.6117 35.5203C62.6821 35.585 62.7524 35.6497 62.8249 35.7164C64.6117 37.3948 65.7379 39.5617 66.6309 41.8108C67.1934 43.2231 67.781 44.4999 68.764 45.6766C68.8365 45.7733 68.9091 45.8699 68.9838 45.9695C69.296 46.3442 69.6954 46.6269 70.0748 46.9297C70.2741 47.0973 70.4352 47.2497 70.5951 47.4527C70.7728 47.6748 70.9151 47.8161 71.1322 47.9898C71.618 48.3943 71.9921 48.8895 72.3773 49.3875C72.4649 49.497 72.4649 49.497 72.5543 49.6088C73.4074 50.7383 74.0789 52.2182 74.3488 53.6111C74.3642 53.6882 74.3797 53.7652 74.3957 53.8446C74.4298 54.0871 74.4337 54.3188 74.4281 54.5633C74.3657 54.4968 74.3032 54.4304 74.2389 54.3619C72.7851 52.9281 70.8806 52.0089 68.8277 52.0157C68.7302 52.0165 68.6326 52.0173 68.5321 52.0181C68.3824 52.0188 68.3824 52.0188 68.2296 52.0195C67.9846 52.0206 67.7395 52.0222 67.4945 52.0242C67.641 52.3329 67.7857 52.5245 68.0377 52.7567C69.55 54.5 70.0336 56 70.8 58.15C70.45 58 70.4 57.9534 70.0336 57.6883C67.7 56 65.077 55.6991 62.3588 56.2261C60.6 56.5 58.9869 57.3527 57.4359 58.2742C57.3715 58.3065 57.307 58.3387 57.2406 58.3719C57.558 57.3302 58.19 56.4502 58.9008 55.6375C58.9891 55.5352 59.0598 55.5044 59.15 55.4C60.25 54.4 61.4908 53.6905 62.9047 53.3914C62.9047 53.3592 62.9047 53.327 62.9047 53.2938C60.5 52.85 58.8 53.2 57.1307 54.9112C56.65 55.25 56.4786 55.7128 56.1725 56.1319C55.5527 56.9773 54.8812 57.6682 53.8 57.85C52.86 57.9283 51.9236 57.9387 51.131 57.3709C50.838 57.0404 50.7874 56.8581 50.7953 56.4188C51.0307 55.8607 51.5841 55.7413 52.1 55.5C52.6664 55.2207 52.9829 54.8071 53.2245 54.2032C53.4351 53.5786 53.3055 52.9549 53.1329 52.3355C52.6803 51.5908 52.0008 51.3255 51.1779 51.1156C49.9448 50.8967 48.7169 50.9616 47.6215 51.6275C47.0351 52.1112 46.8647 52.55 46.7914 53.2938C46.7716 53.9606 46.933 54.4828 47.35 55C47.7882 55.4489 48.184 55.6862 48.75 55.95C48.9953 56.0801 49.1351 56.0281 49.2328 56.2234C49.2672 56.643 49.2871 56.8962 49.0985 57.2733C48.3329 57.9295 47.4694 57.9576 46.4984 57.8836C45.55 57.75 44.874 57.1999 44.25 56.45C44.1052 56.2437 43.9402 56.0593 43.8 55.85C42.9383 54.5729 41.8 53.6385 40.2755 53.3571C39.3668 53.1893 38.0828 53.1557 37.2 53.45C37.2839 53.4703 37.3135 53.5291 37.4 53.55C39.6517 54.1369 41.3026 55.4237 42.4764 57.3976C42.6797 57.7521 42.8545 58.0366 42.9 58.45C40.206 56.5673 36.6738 55.5625 33.4126 56.1836C32.1527 56.4502 30.8337 57.0042 29.85 57.85C29.5809 58.0408 29.55 58.05 29.3 58.2C29.9975 55.9086 30.989 54.1471 32.5 52.4C32.6337 52.2668 32.7134 52.2455 32.8 52.05C31.3503 51.9961 29.8787 51.9291 28.5297 52.5125C28.3943 52.5688 28.3943 52.5688 28.2561 52.6262C27.272 53.0762 26.3579 53.7943 25.6 54.5633C26.1722 51.2352 27.8602 48.4145 30.5804 46.3602C31.0917 45.9741 31.2264 45.9153 31.6295 45.4206C31.85 45.15 31.9693 44.8679 32.1552 44.5963C32.6467 43.8502 32.9708 43.0605 33.3029 42.2345C34.1168 40.2369 34.9671 38.3637 36.3422 36.6922C36.4032 36.6162 36.4643 36.5401 36.5272 36.4618C37.0544 35.8204 37.6826 35.3101 38.3044 34.7704C38.4092 34.6805 38.514 34.5908 38.6188 34.501C38.6691 34.4572 38.7194 34.4133 38.7713 34.3681C39.1408 34.0555 39.3736 33.75 39.7 33.75C39.4828 33.2945 38.977 33.2213 38.65 32.85C37.4617 31.1481 34.25 27.5822 34.25 25.35C34.1855 25.35 34.0664 25.35 34 25.35C33.8796 25.9392 33.7629 26.641 33.6505 27.2318C33.6381 27.2958 33.6258 27.3599 33.613 27.4259C33.472 28.1722 33.3965 28.8955 33.3892 29.6533C33.3883 29.7359 33.3873 29.8186 33.3864 29.9037C33.384 30.1727 33.3828 30.4417 33.382 30.7108C33.3816 30.803 33.3812 30.8953 33.3808 30.9903C33.378 32.4552 33.4691 33.8881 33.6641 35.3396C33.8 37.6 33.9105 37.6261 33.55 38.55C33.4956 38.6947 33.5055 38.6024 33.45 38.75C33.4218 38.8187 33.379 38.7792 33.35 38.85C33.2533 38.85 33.2496 38.8 33.15 38.8C32.9825 38.5978 32.9922 38.6193 32.85 38.4C32.7859 38.3019 32.7653 38.3502 32.7 38.25C30.3115 34.3288 29.95 29.45 30.5804 24.9734C30.5967 24.8806 30.6129 24.7877 30.6297 24.692C30.927 23.0065 31.3209 21.2164 32.1429 19.7Z" fill="#F96303"></path>
<path d="M37.2235 60.8764C37.9932 61.2207 38.3839 61.9804 38.6883 62.7319C38.8762 63.258 39.0492 63.7889 39.2205 64.3207C39.3245 64.643 39.4345 64.9591 39.5672 65.2709C39.6099 65.1276 39.6099 65.1276 39.6535 64.9814C40.0242 63.7779 40.504 62.7502 41.6565 62.1147C42.9005 61.5813 44.2186 61.7868 45.4379 62.2644C46.3521 62.6462 47.1239 63.1579 47.868 63.8061C47.9482 63.8733 48.0284 63.9405 48.111 64.0098C49.2244 64.9691 49.868 66.5306 51.1501 67.2998C52.2001 66.8498 54.4414 62.8879 57.1454 62.4389C58.2715 62.3682 58.9198 62.3695 59.8645 62.9379C60.6357 63.4859 60.9824 64.498 61.2469 65.3686C61.2812 65.2457 61.3154 65.1229 61.3507 64.9963C61.6021 64.1621 62.2176 60.8764 63.5907 60.8764C63.9095 62.2456 63.8201 63.5348 63.5314 64.8936C63.4991 65.0465 63.4705 65.2003 63.4427 65.3541C63.153 66.6906 62.2976 68.0344 61.4422 69.0795C61.3992 69.1322 61.3562 69.1849 61.3118 69.2391C60.4282 70.3131 59.4925 71.3057 58.4023 72.1748C58.0981 72.419 57.8018 72.6711 57.5055 72.9247C57.0636 73.3013 56.6142 73.6662 56.1566 74.0234C53.9963 75.7099 52.251 77.4394 50.8366 79.7885C50.7302 79.965 50.6182 80.138 50.5047 80.31C50.4501 80.3929 50.4001 80.3998 50.3094 80.31C50.2435 80.1891 50.2435 80.1891 50.1763 80.0659C49.3926 78.6497 48.5146 77.3659 47.3797 76.2084C47.2468 76.0698 47.2468 76.0698 47.1112 75.9284C46.5193 75.3215 45.8961 74.7802 45.2313 74.2553C45.115 74.1618 44.9988 74.0682 44.8826 73.9745C44.3533 73.5481 43.8227 73.1241 43.2812 72.7132C40.3142 70.4611 37.7484 67.7756 37.0678 63.9701C37.0187 63.5253 37.0102 63.0875 37.0099 62.6403C37.0087 62.5568 37.0075 62.4733 37.0062 62.3872C37.005 61.8501 37.0723 61.3921 37.2235 60.8764Z" fill="#FBFCFC"></path>
<path d="M59.6965 40.7226C59.7955 40.7212 59.8945 40.7198 59.9965 40.7184C61.5182 40.7282 62.8412 41.3638 63.9129 42.4266C64.7483 43.332 65.2555 44.4113 65.3484 45.642C65.214 45.516 65.1262 45.3839 64.9999 45.2498C64.9885 45.2377 64.8999 45.1498 64.8999 45.1498C64.8999 45.1498 64.7184 44.9714 64.6999 44.9498C64.6684 44.9214 64.4317 44.7327 64.262 44.5434C63.5186 43.776 62.5821 43.3461 61.5219 43.2784C60.6552 43.2536 60.6552 43.2536 59.8796 43.5912C59.6717 43.8503 59.4838 44.1148 59.3025 44.3931C58.8648 44.9771 58.4118 45.2288 57.7373 45.4528C56.7462 45.7697 56.7462 45.7697 55.9734 46.4232C55.8106 47.1627 56.0751 47.7602 56.4617 48.3764C56.8902 49.0254 57.3524 49.6085 57.9265 50.1342C57.6959 50.3859 57.4491 50.5559 57.1575 50.7323C57.0751 50.7829 56.9928 50.8335 56.908 50.8857C56.6485 51.0174 56.4598 51.0961 56.1687 51.1107C55.0211 50.376 54.072 48.6892 53.7273 47.3998C53.5575 45.6926 53.8551 44.1076 54.9302 42.7444C55.6121 41.9379 56.3591 41.4379 57.3406 41.0521C57.4716 40.9997 57.4716 40.9997 57.6053 40.9461C58.2877 40.728 58.9865 40.7298 59.6965 40.7226Z" fill="#031934"></path>
<path d="M58.635 49.3947C58.5286 49.434 58.4223 49.4733 58.3127 49.5137C56.5727 50.2105 55.0364 51.2546 53.8499 52.715C53.7169 52.851 53.7169 52.851 53.5813 52.9897C53.321 53.3584 53.2461 53.6859 53.1403 54.1196C52.9761 54.705 52.594 55.123 52.092 55.4494C51.7862 55.6088 51.478 55.7595 51.1655 55.9053C50.9202 56.0353 50.9202 56.0353 50.8225 56.2306C50.7881 56.6502 50.7682 56.9034 50.9568 57.2805C51.7224 57.9367 52.5859 57.9648 53.5569 57.8908C54.5387 57.7837 55.2766 57.2735 55.9006 56.5236C56.0454 56.3173 56.1876 56.1104 56.3279 55.9011C57.1896 54.624 58.2706 53.7615 59.7798 53.3643C60.6885 53.1965 61.9514 53.1043 62.8342 53.3986C62.7503 53.4189 62.6663 53.4391 62.5798 53.46C60.328 54.0469 58.7527 55.4309 57.5789 57.4048C57.3756 57.7593 57.2157 58.0633 57.1702 58.4767C57.2262 58.4376 57.2822 58.3984 57.3399 58.3581C60.0482 56.5457 63.398 55.5728 66.6427 56.1908C67.9025 56.4574 69.2026 57.0205 70.1863 57.8664C70.4228 58.0624 70.5 57.9998 70.842 58.1838C70.1324 55.8526 69.3218 54.0363 67.5893 52.2962C67.4512 52.1565 67.3164 52.0135 67.1826 51.8697C65.0903 49.6483 61.6205 48.283 58.635 49.3947Z" fill="#FAFBFA"></path>
<path d="M32.14 19.6998C32.49 19.8498 32.7053 19.9678 32.9475 20.2834C33.018 20.3539 33.0885 20.4244 33.1612 20.497C33.8289 21.1647 34.4211 21.8726 34.98 22.6333C35.177 22.8978 35.3812 23.1535 35.5904 23.4084C35.9721 23.8832 36.3115 24.3782 36.6408 24.8904C36.7695 25.0892 36.9006 25.2863 37.0315 25.4836C38.7006 28.0269 39.8941 30.7765 39.7835 33.8576C39.3862 33.8081 39.2498 33.6282 39.0083 33.3205C38.9317 33.2231 38.855 33.1257 38.776 33.0253C38.7342 32.9711 38.6924 32.9168 38.6493 32.861C38.5049 32.6741 38.3586 32.4888 38.2122 32.3035C34.2171 27.2094 34.2171 27.2094 34.2171 25.3615C34.1526 25.3615 34.0882 25.3615 34.0218 25.3615C33.9014 25.9507 33.7863 26.5409 33.6739 27.1316C33.6615 27.1956 33.6491 27.2597 33.6363 27.3257C33.4953 28.0721 33.4198 28.7953 33.4125 29.5531C33.4111 29.6771 33.4111 29.6771 33.4097 29.8035C33.4073 30.0725 33.4061 30.3415 33.4053 30.6106C33.4049 30.7028 33.4045 30.7951 33.4041 30.8902C33.4013 32.355 33.4924 33.7879 33.6875 35.2394C33.9917 37.5113 33.9917 37.5113 33.6311 38.4353C33.5949 38.5317 33.5586 38.6281 33.5213 38.7275C33.4931 38.7962 33.4649 38.865 33.4358 38.9358C33.3391 38.9358 33.2425 38.9358 33.1428 38.9358C32.9754 38.7335 32.8334 38.5386 32.6912 38.3193C32.6485 38.2539 32.6058 38.1884 32.5618 38.121C30.1193 34.2737 29.7778 29.2753 30.6038 24.8733C30.62 24.7804 30.6363 24.6875 30.653 24.5918C30.9504 22.9063 31.3179 21.2162 32.14 19.6998Z" fill="#FAFAFA"></path>
<path d="M67.9 19.6998C69.1679 22.2548 69.7767 25.3081 69.8033 28.1509C69.8047 28.2791 69.8047 28.2791 69.8062 28.41C69.841 32.2677 69.3229 36.0141 66.8503 39.1334C66.2889 38.4955 66.3277 37.7277 66.3315 36.924C66.3317 36.8125 66.3318 36.701 66.3319 36.5861C66.3408 35.7729 66.4116 34.9781 66.5085 34.1713C66.8169 31.5364 66.9647 28.5073 66.1274 25.9613C66.0691 25.7545 66.0691 25.7545 66.0691 25.4615C66.0046 25.4615 65.9402 25.4615 65.8738 25.4615C65.8476 25.5454 65.8213 25.6292 65.7943 25.7156C65.5886 26.3049 65.2976 26.8569 65.0193 27.4147C64.9869 27.4797 64.9544 27.5447 64.9211 27.6116C64.0248 29.3994 62.9608 31.0344 61.7198 32.6019C61.5801 32.7816 61.4456 32.964 61.3125 33.1485C61.2723 33.2041 61.232 33.2597 61.1906 33.3169C61.0846 33.4641 60.9794 33.6119 60.8742 33.7597C60.8161 33.825 60.7579 33.8903 60.698 33.9576C60.6013 33.9576 60.5046 33.9576 60.405 33.9576C60.337 31.505 60.9673 29.423 62.0957 27.2682C62.152 27.1606 62.2082 27.0531 62.2662 26.9422C62.649 26.2184 63.0497 25.5393 63.53 24.8756C63.6169 24.7493 63.7034 24.6227 63.7898 24.496C64.4512 23.5325 65.1681 22.6286 65.9198 21.7343C66.118 21.4967 66.3105 21.2548 66.5024 21.0121C67.55 19.9498 67.65 19.8498 67.9 19.6998Z" fill="#F9FAFA"></path>
<path d="M43.4734 36.9506C44.9317 37.1127 46.3473 37.6264 47.3609 38.7203C48.4782 40.188 48.6538 41.9136 48.4272 43.7039C48.247 44.6573 47.9414 45.6377 47.4 46.4498L47.2 46.6998C47.2 46.6998 47.15 46.7998 46.989 47.0092C46.9836 46.9526 46.9782 46.896 46.9726 46.8377C46.9478 46.5795 46.9227 46.3213 46.8975 46.0632C46.8847 45.9296 46.8847 45.9296 46.8717 45.7933C46.859 45.6635 46.859 45.6635 46.846 45.531C46.8383 45.4518 46.8306 45.3725 46.8227 45.2908C46.7969 45.0518 46.7969 45.0518 46.7382 44.8034C46.6782 44.4683 46.7621 44.1738 46.8364 43.8476C47.1917 42.1138 46.9907 40.5921 46.0125 39.0991C45.4984 38.4368 45.0244 37.9157 44.3 37.4998L44.15 37.3998L43.9 37.2498C43.7 37.1498 43.6687 37.1459 43.4734 36.9506Z" fill="#933504"></path>
<path d="M57.24 36.9998C55.7817 37.1618 54.3661 37.6756 53.3524 38.7695C52.2352 40.2372 52.0596 41.9628 52.2861 43.7531C52.4664 44.7065 52.772 45.6869 53.3134 46.499L53.5134 46.749C53.5134 46.749 53.5634 46.849 53.7244 47.0584C53.7298 47.0018 53.7352 46.9452 53.7407 46.8869C53.7655 46.6287 53.7907 46.3705 53.8159 46.1124C53.8287 45.9788 53.8287 45.9788 53.8417 45.8425C53.8544 45.7127 53.8544 45.7127 53.8674 45.5802C53.8751 45.5009 53.8828 45.4217 53.8907 45.34C53.9165 45.101 53.9165 45.101 53.9752 44.8526C54.0351 44.5175 53.9512 44.223 53.877 43.8968C53.5216 42.163 53.7227 40.6413 54.7009 39.1483C55.215 38.486 55.689 37.9649 56.4134 37.549L56.5634 37.449L56.8134 37.299C57.0134 37.199 57.0447 37.1951 57.24 36.9998Z" fill="#933504"></path>
<path d="M41.4006 40.9001C41.4995 40.9007 41.5983 40.9012 41.7002 40.9018C43.2147 40.9264 44.4051 41.4185 45.5632 42.3955C45.6284 42.4491 45.6936 42.5027 45.7608 42.558C46.8753 43.5615 47.2835 45.0346 47.3701 46.4888C47.4113 47.8698 46.814 48.9575 45.9539 50.0127C45.8856 50.103 45.8174 50.1934 45.7471 50.2866C45.6864 50.3573 45.6257 50.4281 45.5632 50.5009C45.5632 50.5009 45.4429 50.6104 45.432 50.6213C45.382 50.6713 45.332 50.7213 45.332 50.7213C45.3034 50.7713 45.0371 51.046 44.782 51.1845C44.3771 51.1428 44.0773 50.9867 43.7261 50.7878C43.6308 50.7343 43.5355 50.6808 43.4373 50.6257C43.3654 50.5845 43.2935 50.5434 43.2195 50.5009C43.2195 50.1103 43.2195 50.1103 43.345 49.9501C43.4023 49.8982 43.4595 49.8464 43.5186 49.7929C44.292 49.057 45.0741 48.2759 45.136 47.1501C45.1151 46.8165 45.0799 46.6999 44.8918 46.4116C44.4866 46.136 44.0692 45.9796 43.6101 45.8134C42.6294 45.4537 41.9168 45.0882 41.364 44.1777C41.1286 43.8091 40.9478 43.6238 40.5233 43.5056C39.2994 43.3176 38.2861 43.5632 37.2819 44.2807C36.614 44.7955 36.1225 45.2176 35.7976 46.0088C35.7654 46.0088 35.7332 46.0088 35.7 46.0088C35.7231 44.8229 36.0881 43.848 36.7742 42.8838L36.85 42.7498L36.95 42.6498C37.3864 41.8814 38.5138 41.4277 39.3132 41.1259C40.0069 40.9383 40.6846 40.8959 41.4006 40.9001Z" fill="#031A33"></path>
<path d="M41.457 49.4498C41.5634 49.4891 41.6698 49.5284 41.7794 49.5688C43.5193 50.2656 45.0556 51.3097 46.2422 52.7701C46.3751 52.9061 46.3751 52.9061 46.5107 53.0448C46.771 53.4135 46.846 53.741 46.9517 54.1747C47.116 54.7601 47.4981 55.1781 48 55.5045C48.3058 55.6639 48.614 55.8147 48.9266 55.9604C49.1719 56.0905 49.1719 56.0905 49.2695 56.2858C49.3039 56.7053 49.3238 56.9585 49.1353 57.3356C48.3696 57.9918 47.5062 58.0199 46.5352 57.9459C45.5534 57.8388 44.8154 57.3286 44.1914 56.5787C44.0467 56.3724 43.9044 56.1655 43.7642 55.9562C42.9025 54.6791 41.8215 53.8167 40.3122 53.4194C39.4035 53.2516 38.1406 53.1595 37.2578 53.4537C37.3418 53.474 37.4257 53.4943 37.5123 53.5152C39.764 54.102 41.3394 55.486 42.5132 57.4599C42.7165 57.8144 42.8764 58.1184 42.9219 58.5319C42.8659 58.4927 42.8098 58.4536 42.7521 58.4132C40.0438 56.6008 36.694 55.6279 33.4493 56.2459C32.1895 56.5126 30.7837 57.054 29.8 57.8998C29.55 58.0998 29.45 58.1498 29.25 58.2389C29.9596 55.9077 30.7703 54.0914 32.5027 52.3513C32.6409 52.2116 32.7756 52.0686 32.9094 51.9248C35.0018 49.7034 38.4715 48.3382 41.457 49.4498Z" fill="#FAFBFA"></path>
<path d="M50.0989 28.3003C50.2122 28.3007 50.2122 28.3007 50.3278 28.3011C52.961 28.3155 55.2738 28.8811 57.6 30.1394C57.8502 30.2425 57.989 30.36 58.25 30.4894L58.5 30.6394L58.65 30.7394L58.8 30.8894L58.85 30.9394L58.9297 31.0503C58.9297 31.0503 59 31.1394 59.0711 31.2605C59.2243 31.5215 59.2711 31.6164 59.2297 31.9196C59.2096 31.9922 59.1812 32.0393 59.15 32.0894C58.6466 32.1423 58.3088 32.049 57.8565 31.8533C56.7462 31.3895 55.5301 31.1164 54.3591 30.8515C54.2936 30.8364 54.2281 30.8214 54.1607 30.8058C52.9679 30.5436 51.7992 30.4473 50.5817 30.4538C50.3504 30.4548 50.1191 30.4538 49.8877 30.4525C48.5641 30.4513 47.2612 30.541 45.9794 30.8916C45.6658 30.9745 45.351 31.0383 45.033 31.1018C43.9654 31.3271 42.9292 31.6674 41.916 32.0711C41.6668 32.1458 41.4586 32.1518 41.2 32.1394C41.2138 31.5868 41.4637 31.3152 41.816 30.9225C42.1765 30.5769 42.1497 30.6003 42.1497 30.6003L42.1765 30.5768C42.4833 30.3532 42.8224 30.1768 43.1531 29.9909C43.2644 29.9281 43.3756 29.8653 43.4903 29.8006C44.3827 29.3073 44.55 29.2394 44.55 29.2394C44.55 29.2394 44.7 29.1394 44.8132 29.112C45.0106 29.0644 45.2085 29.0183 45.4076 28.9785C45.8583 28.8806 46.3 28.7499 46.7435 28.6238C47.8577 28.3443 48.9574 28.2943 50.0989 28.3003Z" fill="#FC9746"></path>
<path d="M51.9329 59.5336C52.0579 59.5496 52.0579 59.5496 52.1854 59.5659C52.665 59.6387 52.9964 59.7217 53.3367 60.0951C53.3512 60.5007 53.3138 60.6972 53.0376 60.9985C51.9013 61.6754 50.4579 61.8512 49.1726 61.5836C48.4987 61.3882 47.9294 61.1994 47.4834 60.6384C47.3614 60.344 47.3831 60.1995 47.4773 59.8998C48.9572 59.3517 50.3831 59.3213 51.9329 59.5336Z" fill="#F7F9F9"></path>
<circle cx="57.4" cy="43.4998" r="1" fill="#F4F7F8"></circle>
<path d="M57.7983 40.3014C57.9051 40.3236 58.0118 40.3457 58.1218 40.3685C58.1541 40.4974 58.1863 40.6264 58.2195 40.7592C58.1691 40.7451 58.1188 40.731 58.0669 40.7164C57.762 40.6461 57.4553 40.6056 57.1453 40.5639C57.351 40.2612 57.4206 40.2694 57.7983 40.3014Z" fill="#F2670E"></path>
<circle cx="43.1" cy="43.4998" r="1" fill="#F4F7F8"></circle>
</g>
<defs>
<clipPath id="SvgjsClipPath1005">
<rect width="100" height="100" fill="white"></rect>
</clipPath>
</defs>
</svg><style>@media (prefers-color-scheme: light) { :root { filter: none; } }
@media (prefers-color-scheme: dark) { :root { filter: none; } }
</style></svg>